{"title":"Big Hero 6 2014 720p HDCAM NEW SOURCE V2 x264 Pimp4003","uid":11543856,"size":1729242963,"categoryP":"video","categoryS":"movies","magnet":"?xt=urn:btih:d8421135ccc26d3c9e789746fcb4607d4b11b51b&amp;dn=Big+Hero+6+2014+720p+HDCAM+NEW+SOURCE+V2+x264+Pimp4003&amp;tr=udp%3A%2F%2Ftracker.openbittorrent.com%3A80&amp;tr=udp%3A%2F%2Fopen.demonii.com%3A1337&amp;tr=udp%3A%2F%2Ftracker.coppersurfer.tk%3A6969&amp;tr=udp%3A%2F%2Fexodus.desync.com%3A6969","seeders":20,"leechers":0,"uploader":"shawnmurthy","files":-1,"time":1416699902,"description":"FOR SCREENSHOTS AND FASTER DOWNLOAD SPEEDS PLEASE VISIT MY HOME SITE...SOURCE IS PIMP4003....THE VIDEO IS MUCH BETTER THEN MY FIRST CAM OF THIS....THIS IS THE RUSSIAN SOURCE WHICH SEEMS TO BE THE BEST OUT RIGHT NOW FOR THIS MOVIE.....USED MY AUDIO FROM MY FIRST CAM EXCEPT I DID MORE WORK ON IT THIS TIME..............ENJOY\n\nBig Hero 6 2014 720p HDCAM NEW SOURCE V2 x264 Pimp4003\n &lt;a href=&quot;\nhttp://www.imdb.com/title/tt2245084/&quot; rel=&quot;nofollow&quot; target=&quot;_NEW&quot;&gt;\nhttp://www.imdb.com/title/tt2245084/&lt;/a&gt;\n\nThe special bond that develops between plus-sized inflatable robot Baymax, and prodigy Hiro Hamada, who team up with a group of friends to form a band of high-tech heroes.\n\nDirectors: Don Hall, Chris Williams\nWriters: Jordan Roberts (screenplay), Daniel Gerson (screenplay), 5 more credits Â»\nStars: Ryan Potter, Scott Adsit, Jamie Chung | See full cast and crew Â»\n\nENJOY\n\nPIMP4003\n\nVideo\nID                                       : 1\nFormat                                   : MPEG-4 Visual\nFormat profile                           : Simple@L3\nFormat settings, BVOP                    : No\nFormat settings, QPel                    : No\nFormat settings, GMC                     : No warppoints\nFormat settings, Matrix                  : Default (H.263)\nCodec ID                                 : 20\nDuration                                 : 1h 31mn\nBit rate                                 : 2 398 Kbps\nWidth                                    : 1 280 pixels\nHeight                                   : 536 pixels\nDisplay aspect ratio                     : 2.40:1\nFrame rate mode                          : Variable\nFrame rate                               : 59.940 fps\nMinimum frame rate                       : 59.916 fps\nMaximum frame rate                       : 60.157 fps\nColor space                              : YUV\nChroma subsampling                       : 4:2:0\nBit depth                                : 8 bits\nScan type                                : Progressive\nCompression mode                         : Lossy\nBits/(Pixel*Frame)                       : 0.058\nStream size                              : 1.52 GiB (95%)\nWriting library                          : ZJMedia MPEG Encoder\n\nAudio\nID                                       : 2\nFormat                                   : AAC\nFormat/Info                              : Advanced Audio Codec\nFormat profile                           : LC\nCodec ID                                 : 40\nDuration                                 : 1h 31mn\nBit rate mode                            : Variable\nBit rate                                 : 128 Kbps\nChannel(s)                               : 2 channels\nChannel positions                        : Front: L R\nSampling rate                            : 48.0 KHz\nCompression mode                         : Lossy\nStream size                              : 83.3 MiB (5%)","torrent":{"xt":"urn:btih:d8421135ccc26d3c9e789746fcb4607d4b11b51b","amp;dn":"Big+Hero+6+2014+720p+HDCAM+NEW+SOURCE+V2+x264+Pimp4003","amp;tr":["udp%3A%2F%2Ftracker.openbittorrent.com%3A80","udp%3A%2F%2Fopen.demonii.com%3A1337","udp%3A%2F%2Ftracker.coppersurfer.tk%3A6969","udp%3A%2F%2Fexodus.desync.com%3A6969"],"infoHash":"d8421135ccc26d3c9e789746fcb4607d4b11b51b","infoHashBuffer":{"type":"Buffer","data":[216,66,17,53,204,194,109,60,158,120,151,70,252,180,96,125,75,17,181,27]},"announce":[],"urlList":[]}}